<svg xmlns="http://www.w3.org/2000/svg" width="20" height="14" viewBox="0 0 20 14">
  <defs>
    <style>
      .cls-1 {
        fill: #510fad;
        fill-rule: evenodd;
      }
    </style>
  </defs>
  <path id="arrow_next" class="cls-1" d="M725,3393h18a1,1,0,0,1,1,1v0.03a1,1,0,0,1-1,1H725a1,1,0,0,1-1-1V3394A1,1,0,0,1,725,3393Zm11.464-5.68a0.984,0.984,0,0,1,1.415,0l5.656,5.8a1.031,1.031,0,0,1,0,1.44,0.967,0.967,0,0,1-1.414,0l-5.657-5.79A1.045,1.045,0,0,1,736.464,3387.32Zm0,13.4a1.045,1.045,0,0,1,0-1.45l5.657-5.8a0.983,0.983,0,0,1,1.414,0,1.043,1.043,0,0,1,0,1.45l-5.656,5.8A0.984,0.984,0,0,1,736.464,3400.72Z" transform="translate(-724 -3387.03)"/>
</svg>
